<svg version="1.1" id="Layer_1" xmlns="http://www.w3.org/2000/svg" xmlns:xlink="http://www.w3.org/1999/xlink" x="0px" y="0px"
	 width="100%" viewBox="0 0 512 512" enable-background="new 0 0 512 512" xml:space="preserve">
<path fill="#FFFFFF" opacity="1.000000" stroke="none" 
	d="
M225.000000,1.000000 
	C246.020889,1.000000 267.041779,1.000000 288.229858,1.364905 
	C289.233582,2.152210 290.026733,2.775484 290.913208,2.966951 
	C304.758820,5.957477 318.789673,8.259081 332.430481,11.989448 
	C352.472504,17.470364 371.186279,26.284611 389.034851,36.970543 
	C412.972961,51.302284 433.730347,69.287994 451.941040,90.371117 
	C467.991730,108.953506 481.013763,129.395172 490.998779,151.815842 
	C501.141388,174.590271 508.268036,198.191620 511.076691,223.032028 
	C511.158020,223.751328 512.334290,224.346802 513.000000,225.000000 
	C513.000000,246.020889 513.000000,267.041779 512.635132,288.229858 
	C511.847778,289.233582 511.224487,290.026764 511.033020,290.913269 
	C508.042450,304.758881 505.740936,318.789703 502.010559,332.430542 
	C496.529663,352.472565 487.715393,371.186371 477.029449,389.034943 
	C462.697693,412.973022 444.712006,433.730469 423.628754,451.941010 
	C405.046356,467.991608 384.604828,481.013916 362.184052,490.998932 
	C339.409576,501.141357 315.808258,508.267853 290.967926,511.076660 
	C290.248627,511.157990 289.653198,512.334290 289.000000,513.000000 
	C267.979095,513.000000 246.958206,513.000000 225.770142,512.635132 
	C224.766373,511.847809 223.973190,511.224518 223.086716,511.033020 
	C209.241089,508.042450 195.210266,505.740753 181.569397,502.010437 
	C161.527390,496.529602 142.813583,487.715363 124.965050,477.029419 
	C101.027023,462.697632 80.269547,444.712036 62.058903,423.628815 
	C46.008297,405.046387 32.986156,384.604767 23.001118,362.184082 
	C12.858547,339.409637 5.732106,315.808289 2.923303,290.967926 
	C2.841978,290.248657 1.665721,289.653198 0.999996,289.000000 
	C1.000000,267.979095 1.000000,246.958206 1.364918,225.770142 
	C2.152229,224.766434 2.775492,223.973267 2.966951,223.086823 
	C5.957469,209.241180 8.259045,195.210342 11.989442,181.569504 
	C17.470373,161.527527 26.284624,142.813690 36.970558,124.965141 
	C51.302315,101.027054 69.287971,80.269638 90.371140,62.058960 
	C108.953560,46.008312 129.395187,32.986179 151.815872,23.001143 
	C174.590317,12.858558 198.191681,5.732057 223.032074,2.923312 
	C223.751343,2.841982 224.346802,1.665727 225.000000,1.000000 
M164.548096,202.973251 
	C164.081650,207.779968 163.727814,212.600723 163.131424,217.391251 
	C156.942642,267.101624 150.651993,316.799408 144.538635,366.519012 
	C142.852997,380.228119 141.095795,393.969849 140.405289,407.748413 
	C139.705002,421.722717 141.181595,435.589935 151.684494,446.392395 
	C164.301971,459.369751 180.997330,460.452667 197.283997,462.203552 
	C195.155762,445.033142 192.613205,428.566681 191.168839,412.004425 
	C188.371033,379.922607 188.542679,347.796692 190.867493,315.659058 
	C193.723053,276.184418 199.688080,237.295044 212.089386,199.604675 
	C219.243668,177.861160 228.318115,156.991470 242.982895,139.061554 
	C253.636002,126.036499 265.999084,115.562080 283.294891,112.420929 
	C302.434753,108.944870 315.221161,115.609299 321.939117,133.778778 
	C324.209564,139.919464 325.716064,146.658310 325.953064,153.182587 
	C327.242981,188.695419 316.736359,221.131317 298.654755,251.264038 
	C287.560455,269.752502 273.675781,286.032684 254.932785,297.070679 
	C244.945404,302.952423 233.740723,306.767090 223.666519,311.255859 
	C244.381546,319.114258 266.468079,320.245117 288.264679,311.584991 
	C317.490967,299.972900 337.519501,278.056976 352.005981,250.881149 
	C370.474182,216.235886 376.539764,179.025436 372.868683,140.174179 
	C371.158722,122.077660 365.444519,105.334976 352.798309,91.706207 
	C336.814758,74.480843 312.088959,69.533974 287.828217,78.631706 
	C261.717316,88.423264 242.158096,106.192055 227.368256,129.417358 
	C221.870178,138.051254 217.176804,147.197586 211.804932,156.658951 
	C211.662064,154.482849 211.564117,152.739471 211.430618,150.998825 
	C210.616211,140.380341 210.246979,129.703049 208.864502,119.158752 
	C206.934662,104.439575 203.837067,89.906174 195.713470,77.108902 
	C187.608612,64.341179 175.737701,56.752941 160.642578,52.383984 
	C168.615158,102.602257 168.231796,152.289307 164.548096,202.973251 
z"/>
<path fill="#000000" opacity="1.000000" stroke="none" 
	d="
M224.531342,1.000000 
	C224.346802,1.665727 223.751343,2.841982 223.032074,2.923312 
	C198.191681,5.732057 174.590317,12.858558 151.815872,23.001143 
	C129.395187,32.986179 108.953560,46.008312 90.371140,62.058960 
	C69.287971,80.269638 51.302315,101.027054 36.970558,124.965141 
	C26.284624,142.813690 17.470373,161.527527 11.989442,181.569504 
	C8.259045,195.210342 5.957469,209.241180 2.966951,223.086823 
	C2.775492,223.973267 2.152229,224.766434 1.364918,225.301483 
	C1.000000,150.406296 1.000000,75.812576 1.000000,1.000000 
	C75.354088,1.000000 149.708389,1.000000 224.531342,1.000000 
z"/>
<path fill="#000000" opacity="1.000000" stroke="none" 
	d="
M513.000000,224.531342 
	C512.334290,224.346802 511.158020,223.751328 511.076691,223.032028 
	C508.268036,198.191620 501.141388,174.590271 490.998779,151.815842 
	C481.013763,129.395172 467.991730,108.953506 451.941040,90.371117 
	C433.730347,69.287994 412.972961,51.302284 389.034851,36.970543 
	C371.186279,26.284611 352.472504,17.470364 332.430481,11.989448 
	C318.789673,8.259081 304.758820,5.957477 290.913208,2.966951 
	C290.026733,2.775484 289.233582,2.152210 288.698486,1.364905 
	C363.593719,1.000000 438.187408,1.000000 513.000000,1.000000 
	C513.000000,75.354088 513.000000,149.708389 513.000000,224.531342 
z"/>
<path fill="#000000" opacity="1.000000" stroke="none" 
	d="
M0.999996,289.468658 
	C1.665721,289.653198 2.841978,290.248657 2.923303,290.967926 
	C5.732106,315.808289 12.858547,339.409637 23.001118,362.184082 
	C32.986156,384.604767 46.008297,405.046387 62.058903,423.628815 
	C80.269547,444.712036 101.027023,462.697632 124.965050,477.029419 
	C142.813583,487.715363 161.527390,496.529602 181.569397,502.010437 
	C195.210266,505.740753 209.241089,508.042450 223.086716,511.033020 
	C223.973190,511.224518 224.766373,511.847809 225.301483,512.635132 
	C150.406296,513.000000 75.812599,513.000000 1.000000,513.000000 
	C1.000000,438.645905 1.000000,364.291626 0.999996,289.468658 
z"/>
<path fill="#000000" opacity="1.000000" stroke="none" 
	d="
M289.468658,513.000000 
	C289.653198,512.334290 290.248627,511.157990 290.967926,511.076660 
	C315.808258,508.267853 339.409576,501.141357 362.184052,490.998932 
	C384.604828,481.013916 405.046356,467.991608 423.628754,451.941010 
	C444.712006,433.730469 462.697693,412.973022 477.029449,389.034943 
	C487.715393,371.186371 496.529663,352.472565 502.010559,332.430542 
	C505.740936,318.789703 508.042450,304.758881 511.033020,290.913269 
	C511.224487,290.026764 511.847778,289.233582 512.635132,288.698486 
	C513.000000,363.593719 513.000000,438.187408 513.000000,513.000000 
	C438.645905,513.000000 364.291626,513.000000 289.468658,513.000000 
z"/>
<path fill="#03589C" opacity="1.000000" stroke="none" 
	d="
M164.604263,202.511719 
	C168.231796,152.289307 168.615158,102.602257 160.642578,52.383984 
	C175.737701,56.752941 187.608612,64.341179 195.713470,77.108902 
	C203.837067,89.906174 206.934662,104.439575 208.864502,119.158752 
	C210.246979,129.703049 210.616211,140.380341 211.430618,150.998825 
	C211.564117,152.739471 211.662064,154.482849 211.804932,156.658951 
	C217.176804,147.197586 221.870178,138.051254 227.368256,129.417358 
	C242.158096,106.192055 261.717316,88.423264 287.828217,78.631706 
	C312.088959,69.533974 336.814758,74.480843 352.798309,91.706207 
	C365.444519,105.334976 371.158722,122.077660 372.868683,140.174179 
	C376.539764,179.025436 370.474182,216.235886 352.005981,250.881149 
	C337.519501,278.056976 317.490967,299.972900 288.264679,311.584991 
	C266.468079,320.245117 244.381546,319.114258 223.666519,311.255859 
	C233.740723,306.767090 244.945404,302.952423 254.932785,297.070679 
	C273.675781,286.032684 287.560455,269.752502 298.654755,251.264038 
	C316.736359,221.131317 327.242981,188.695419 325.953064,153.182587 
	C325.716064,146.658310 324.209564,139.919464 321.939117,133.778778 
	C315.221161,115.609299 302.434753,108.944870 283.294891,112.420929 
	C265.999084,115.562080 253.636002,126.036499 242.982895,139.061554 
	C228.318115,156.991470 219.243668,177.861160 212.089386,199.604675 
	C199.688080,237.295044 193.723053,276.184418 190.867493,315.659058 
	C188.542679,347.796692 188.371033,379.922607 191.168839,412.004425 
	C192.613205,428.566681 195.155762,445.033142 197.283997,462.203552 
	C180.997330,460.452667 164.301971,459.369751 151.684494,446.392395 
	C141.181595,435.589935 139.705002,421.722717 140.405289,407.748413 
	C141.095795,393.969849 142.852997,380.228119 144.538635,366.519012 
	C150.651993,316.799408 156.942642,267.101624 163.131424,217.391251 
	C163.727814,212.600723 164.081650,207.779968 164.604263,202.511719 
z"/>
</svg>